HIERARCHY
ROOT Hips
{
	OFFSET 0.000000 0.000000 0.000000
	CHANNELS 6 Xposition Yposition Zposition Zrotation Yrotation Xrotation 
	JOINT LHipJoint
	{
		OFFSET 0.000000 0.000000 0.000000
		CHANNELS 3 Zrotation Yrotation Xrotation
		JOINT LeftUpLeg
		{
			OFFSET 1.363060 -1.794630 0.839290
			CHANNELS 3 Zrotation Yrotation Xrotation
			JOINT LeftLeg
			{
				OFFSET 2.448110 -6.726130 0.000000
				CHANNELS 3 Zrotation Yrotation Xrotation
				JOINT LeftFoot
				{
					OFFSET 2.562200 -7.039590 0.000000
					CHANNELS 3 Zrotation Yrotation Xrotation
					JOINT LeftToeBase
					{
						OFFSET 0.157640 -0.433110 2.322550
						CHANNELS 3 Zrotation Yrotation Xrotation
						End Site
						{
							OFFSET 0.000000 0.000000 0.000000
						}
					}
				}
			}
		}
	}
	JOINT RHipJoint
	{
		OFFSET 0.000000 0.000000 0.000000
		CHANNELS 3 Zrotation Yrotation Xrotation
		JOINT RightUpLeg
		{
			OFFSET -1.305520 -1.794630 0.839290
			CHANNELS 3 Zrotation Yrotation Xrotation
			JOINT RightLeg
			{
				OFFSET -2.542530 -6.985550 0.000000
				CHANNELS 3 Zrotation Yrotation Xrotation
				JOINT RightFoot
				{
					OFFSET -2.568260 -7.056230 0.000000
					CHANNELS 3 Zrotation Yrotation Xrotation
					JOINT RightToeBase
					{
						OFFSET -0.164730 -0.452590 2.363150
						CHANNELS 3 Zrotation Yrotation Xrotation
						End Site
						{
							OFFSET 0.000000 0.000000 0.000000
						}
					}
				}
			}
		}
	}
	JOINT LowerBack
	{
		OFFSET 0.000000 0.000000 0.000000
		CHANNELS 3 Zrotation Yrotation Xrotation
		JOINT Spine
		{
			OFFSET 0.028270 2.035590 -0.193380
			CHANNELS 3 Zrotation Yrotation Xrotation
			JOINT Spine1
			{
				OFFSET 0.056720 2.048850 -0.042750
				CHANNELS 3 Zrotation Yrotation Xrotation
				JOINT Neck
				{
					OFFSET 0.000000 0.000000 0.000000
					CHANNELS 3 Zrotation Yrotation Xrotation
					JOINT Neck1
					{
						OFFSET -0.054170 1.746240 0.172020
						CHANNELS 3 Zrotation Yrotation Xrotation
						JOINT Head
						{
							OFFSET 0.104070 1.761360 -0.123970
							CHANNELS 3 Zrotation Yrotation Xrotation
							End Site
							{
								OFFSET 0.000000 0.000000 0.000000
							}
						}
					}
				}
				JOINT LeftShoulder
				{
					OFFSET 0.000000 0.000000 0.000000
					CHANNELS 3 Zrotation Yrotation Xrotation
					JOINT LeftArm
					{
						OFFSET 3.362410 1.200890 -0.311210
						CHANNELS 3 Zrotation Yrotation Xrotation
						JOINT LeftForeArm
						{
							OFFSET 4.983000 -0.000000 -0.000000
							CHANNELS 3 Zrotation Yrotation Xrotation
							JOINT LeftHand
							{
								OFFSET 3.483560 -0.000000 -0.000000
								CHANNELS 3 Zrotation Yrotation Xrotation
								JOINT LeftFingerBase
								{
									OFFSET 0.000000 0.000000 0.000000
									CHANNELS 3 Zrotation Yrotation Xrotation
									JOINT LeftHandIndex1
									{
										OFFSET 0.715260 -0.000000 -0.000000
										CHANNELS 3 Zrotation Yrotation Xrotation
										End Site
										{
											OFFSET 0.000000 0.000000 0.000000
										}
									}
								}
								JOINT LThumb
								{
									OFFSET 0.000000 0.000000 0.000000
									CHANNELS 3 Zrotation Yrotation Xrotation
									End Site
									{
										OFFSET 0.000000 0.000000 0.000000
									}
								}
							}
						}
					}
				}
				JOINT RightShoulder
				{
					OFFSET 0.000000 0.000000 0.000000
					CHANNELS 3 Zrotation Yrotation Xrotation
					JOINT RightArm
					{
						OFFSET -3.136600 1.374050 -0.404650
						CHANNELS 3 Zrotation Yrotation Xrotation
						JOINT RightForeArm
						{
							OFFSET -5.241900 -0.000000 -0.000000
							CHANNELS 3 Zrotation Yrotation Xrotation
							JOINT RightHand
							{
								OFFSET -3.444170 -0.000000 -0.000000
								CHANNELS 3 Zrotation Yrotation Xrotation
								JOINT RightFingerBase
								{
									OFFSET 0.000000 0.000000 0.000000
									CHANNELS 3 Zrotation Yrotation Xrotation
									JOINT RightHandIndex1
									{
										OFFSET -0.622530 -0.000000 -0.000000
										CHANNELS 3 Zrotation Yrotation Xrotation
										End Site
										{
											OFFSET 0.000000 0.000000 0.000000
										}
									}
								}
								JOINT RThumb
								{
									OFFSET 0.000000 0.000000 0.000000
									CHANNELS 3 Zrotation Yrotation Xrotation
									End Site
									{
										OFFSET 0.000000 0.000000 0.000000
									}
								}
							}
						}
					}
				}
			}
		}
	}
}
MOTION
Frames: 11
Frame Time: 0.008333
1.876639 18.205479 -3.943814 2.182965 -12.198709 -0.825665 -2.133096 6.122282 6.902340 3.534789 -4.414250 -10.665911 -1.129473 -0.431601 0.680280 -0.155820 4.685081 14.717787 0.000000 0.000000 0.000000 -3.353143 -6.933311 4.061298 18.104734 22.586204 5.738561 -0.414460 -2.484972 12.339777 4.966066 -18.175807 -6.330709 -0.192000 2.821700 -7.782600 1.885814 1.449473 -3.038725 -10.477971 1.378315 16.276162 4.016795 1.080066 -9.968818 -8.991860 -4.674239 -13.464272 5.414711 -6.065188 17.686208 2.784600 -2.951600 5.822900 -5.676322 -0.968753 -0.990947 -81.742693 1.023169 0.300163 18.060004 -27.059472 -4.520456 -0.525241 -1.039277 4.339895 25.296224 20.255603 9.964700 -7.125000 0.000000 0.000000 -3.096500 53.427500 -0.642300 8.974249 0.592307 -2.051416 76.450620 -2.660321 15.695101 -24.358619 31.014609 -8.104962 1.735370 0.458147 -4.074760 -46.099706 13.336686 -13.406500 7.125000 0.000000 0.000000 -13.710600 -12.141700 -10.842800 
1.876350 18.205287 -3.943428 2.291464 -12.128290 -0.858438 -2.136208 6.116302 6.897715 3.535204 -4.414945 -10.665224 -1.129417 -0.432450 0.680698 -0.156078 4.684210 14.718122 0.000000 0.000000 0.000000 -3.358554 -6.932725 4.064880 17.992101 22.572385 5.691192 -0.426812 -2.531460 12.470350 4.918810 -18.045102 -6.503893 -0.177600 2.714400 -7.484700 1.776931 1.436946 -3.044967 -10.524934 1.358099 16.263686 4.080348 1.074403 -9.960758 -8.957274 -4.669508 -13.514529 5.320883 -6.045111 17.801662 2.761200 -2.947800 5.851700 -5.656825 -0.971930 -0.988652 -81.785750 0.961846 0.873077 18.309433 -27.375896 -4.645334 -0.516829 -1.065737 3.802610 25.382138 20.909169 10.296400 -7.125000 0.000000 0.000000 -3.198400 54.167400 -0.721200 8.948287 0.598362 -2.043084 76.393435 -2.653479 15.996168 -24.600398 31.281805 -8.278435 1.708368 0.473783 -4.102196 -45.949457 13.380487 -13.355600 7.125000 0.000000 0.000000 -13.594000 -12.153000 -10.741600 
1.876350 18.206347 -3.942368 2.329629 -12.096101 -0.859110 -2.136857 6.113182 6.894190 3.535208 -4.415109 -10.665162 -1.129397 -0.432591 0.680793 -0.156076 4.684059 14.718176 0.000000 0.000000 0.000000 -3.359519 -6.932698 4.064381 17.945166 22.550228 5.656190 -0.431858 -2.548562 12.513319 4.907986 -18.011089 -6.488681 -0.182500 2.751800 -7.588400 1.731718 1.431661 -3.065877 -10.532597 1.346195 16.231459 4.103738 1.070938 -9.946346 -8.936184 -4.653104 -13.524041 5.273935 -6.017908 17.879929 2.750500 -2.937500 5.867300 -5.642489 -0.974183 -0.987450 -81.759994 0.950715 1.521460 18.548465 -27.677634 -4.769021 -0.509648 -1.074379 3.412430 25.515229 21.042246 10.416800 -7.125000 0.000000 0.000000 -3.099200 54.342900 -0.712100 8.923667 0.603670 -2.036141 76.337735 -2.662046 16.374881 -24.848661 31.549381 -8.454660 1.690860 0.490379 -4.167192 -46.034671 13.344448 -13.330700 7.125000 0.000000 0.000000 -13.650400 -12.209500 -10.772400 
1.876832 18.207118 -3.943332 2.308229 -12.055414 -0.833821 -2.138317 6.111892 6.889959 3.533922 -4.414297 -10.666652 -1.129337 -0.431221 0.680220 -0.155405 4.685470 14.717681 0.000000 0.000000 0.000000 -3.361616 -6.929768 4.056787 17.977570 22.543458 5.612216 -0.438896 -2.564770 12.562305 4.926583 -18.070874 -6.477301 -0.186000 2.777900 -7.661000 1.769191 1.425089 -3.050226 -10.551084 1.334156 16.139885 4.091635 1.065176 -9.948887 -8.907518 -4.648178 -13.415304 5.260359 -6.017667 17.855859 2.745500 -2.938900 5.846300 -5.631733 -0.976782 -0.985558 -81.664855 0.973780 2.311705 18.749933 -27.928864 -4.877106 -0.498764 -1.072597 2.936356 25.571948 20.752876 10.312900 -7.125000 0.000000 0.000000 -2.956400 54.038700 -0.657300 8.909170 0.609617 -2.029363 76.314443 -2.661356 16.722919 -25.093083 31.804464 -8.623800 1.680191 0.514531 -4.310999 -46.236176 13.147182 -13.189900 7.125000 0.000000 0.000000 -13.823400 -12.462100 -10.842500 
1.876832 18.207021 -3.945259 2.300887 -12.020756 -0.822876 -2.142469 6.110491 6.887428 3.532792 -4.413690 -10.667951 -1.129255 -0.430135 0.679772 -0.154859 4.686594 14.717308 0.000000 0.000000 0.000000 -3.366323 -6.927998 4.051528 18.004987 22.555231 5.613915 -0.439185 -2.565384 12.569495 4.930341 -18.088780 -6.538996 -0.179000 2.725500 -7.515400 1.805911 1.425003 -3.046577 -10.602847 1.333927 16.084813 4.083128 1.062543 -9.941973 -8.844171 -4.662442 -13.344550 5.217752 -6.040883 17.847650 2.726800 -2.952400 5.835400 -5.614929 -0.981338 -0.983416 -81.601820 0.938096 2.922002 18.963517 -28.194231 -4.992990 -0.484562 -1.066436 2.728484 25.437804 20.408165 10.095000 -7.125000 0.000000 0.000000 -3.008100 53.633200 -0.639000 8.891518 0.617864 -2.022840 76.301507 -2.640918 17.049257 -25.348754 32.070152 -8.804809 1.660242 0.540885 -4.411557 -46.218717 12.967468 -12.964200 7.125000 0.000000 0.000000 -13.848900 -12.754700 -10.776400 
1.876446 18.206732 -3.945259 2.306165 -12.022996 -0.844865 -2.146167 6.109666 6.886876 3.532319 -4.413427 -10.668605 -1.129210 -0.429691 0.679596 -0.154689 4.687050 14.717160 0.000000 0.000000 0.000000 -3.370063 -6.927192 4.050540 18.002138 22.499476 5.639725 -0.434188 -2.551802 12.532492 4.914765 -18.034959 -6.516484 -0.181000 2.740600 -7.557400 1.821892 1.437577 -3.056712 -10.645610 1.353274 16.089385 4.079273 1.069138 -9.939533 -8.719368 -4.664659 -13.436715 5.090445 -6.036452 18.012624 2.680900 -2.954700 5.878300 -5.597730 -0.983397 -0.979578 -81.593179 0.848288 3.360689 19.201660 -28.490918 -5.120065 -0.473260 -1.073877 2.702813 25.305956 20.644047 10.138000 -7.125000 0.000000 0.000000 -3.225800 53.866000 -0.703700 8.862643 0.623083 -2.014661 76.277770 -2.634938 17.366985 -25.608828 32.344776 -8.996088 1.635647 0.549225 -4.371005 -46.156590 13.096766 -13.045400 7.125000 0.000000 0.000000 -13.768100 -12.618500 -10.750000 
1.875482 18.206347 -3.946512 2.241243 -12.011676 -0.853774 -2.134065 6.113734 6.889986 3.533965 -4.414147 -10.666773 -1.129376 -0.431047 0.680138 -0.155413 4.685635 14.717591 0.000000 0.000000 0.000000 -3.357666 -6.928587 4.055757 18.062883 22.455843 5.667756 -0.430734 -2.536180 12.488813 4.934112 -18.085860 -6.415265 -0.196500 2.854700 -7.874600 1.807493 1.449412 -3.099073 -10.500524 1.364021 16.144794 4.053266 1.077374 -9.933404 -8.665904 -4.648405 -13.574882 4.981140 -5.999746 18.231605 2.648500 -2.941700 5.937400 -5.605801 -0.988194 -0.979058 -81.634461 0.686183 3.797963 19.388908 -28.718552 -5.220170 -0.465095 -1.081947 2.666408 25.208294 20.888951 10.200500 -7.125000 0.000000 0.000000 -3.409400 54.115700 -0.764600 8.824081 0.632001 -2.006377 76.196784 -2.591126 17.615027 -25.827811 32.576339 -9.158750 1.614384 0.544875 -4.288865 -46.136380 13.386250 -13.319300 7.125000 0.000000 0.000000 -13.675900 -12.235200 -10.786200 
1.874519 18.205672 -3.947958 2.157284 -11.967535 -0.828286 -2.116391 6.117902 6.892503 3.536358 -4.415321 -10.663995 -1.129606 -0.433120 0.680988 -0.156413 4.683475 14.718256 0.000000 0.000000 0.000000 -3.339716 -6.931063 4.062495 18.137731 22.448093 5.678641 -0.427844 -2.522652 12.451171 4.964721 -18.179289 -6.366055 -0.201500 2.890500 -7.974100 1.781506 1.455187 -3.188597 -10.286149 1.359150 16.186468 4.010633 1.079889 -9.893980 -8.780609 -4.625189 -13.631016 5.104331 -5.980597 18.383825 2.686600 -2.926100 5.980000 -5.616098 -1.000971 -0.980301 -81.674911 0.498752 4.288728 19.553689 -28.914313 -5.308984 -0.458620 -1.089095 2.706092 25.103779 21.152112 10.266400 -7.125000 0.000000 0.000000 -3.607800 54.382300 -0.832600 8.792046 0.641420 -2.001198 76.078349 -2.546979 17.867230 -26.056237 32.813589 -9.327161 1.590054 0.548903 -4.217657 -46.036066 13.541774 -13.413100 7.125000 0.000000 0.000000 -13.563900 -12.067300 -10.741200 
1.874904 18.205190 -3.946030 2.176995 -11.938376 -0.848975 -2.112729 6.116905 6.891938 3.537358 -4.415954 -10.662849 -1.129667 -0.434155 0.681446 -0.156894 4.682395 14.718610 0.000000 0.000000 0.000000 -3.335861 -6.932119 4.067151 18.099929 22.400568 5.713422 -0.420468 -2.506589 12.401443 4.950347 -18.136309 -6.400962 -0.187300 2.787600 -7.687900 1.748788 1.461278 -3.249155 -10.234362 1.361610 16.207319 3.995910 1.081694 -9.856837 -8.901059 -4.588552 -13.675077 5.329638 -5.963349 18.496739 2.749600 -2.903700 6.015200 -5.597869 -1.012978 -0.980020 -81.686442 0.382425 4.791414 19.773621 -29.181735 -5.428356 -0.452531 -1.100213 2.765920 25.056609 21.607564 10.440500 -7.125000 0.000000 0.000000 -3.810000 54.868900 -0.924500 8.768534 0.644046 -1.998141 75.986755 -2.538107 18.195819 -26.331643 33.095510 -9.529771 1.567018 0.561070 -4.152837 -46.041442 13.546489 -13.392900 7.125000 0.000000 0.000000 -13.556100 -12.089100 -10.728400 
1.875001 18.204997 -3.945067 2.200923 -11.924139 -0.924736 -2.110957 6.118492 6.896291 3.538619 -4.416756 -10.661389 -1.129720 -0.435498 0.681999 -0.157554 4.681017 14.719096 0.000000 0.000000 0.000000 -3.334078 -6.934451 4.075034 18.082496 22.376073 5.812266 -0.413213 -2.489204 12.349585 4.942700 -18.113803 -6.434004 -0.179900 2.731700 -7.532700 1.725720 1.467287 -3.262852 -10.216914 1.373720 16.300765 3.989060 1.085868 -9.850316 -8.889496 -4.551195 -13.823547 5.383919 -5.922893 18.633303 2.760700 -2.877000 6.062400 -5.577414 -1.022842 -0.982429 -81.676556 0.277483 5.360162 20.008128 -29.468406 -5.557422 -0.448110 -1.110023 2.663358 25.153320 21.964820 10.639800 -7.125000 0.000000 0.000000 -3.827800 55.278600 -0.967000 8.738438 0.651032 -1.993089 75.924271 -2.435971 18.476153 -26.550438 33.316871 -9.693889 1.546926 0.567798 -4.099734 -45.991046 13.627127 -13.432400 7.125000 0.000000 0.000000 -13.496000 -12.012400 -10.700000 
1.874037 18.205094 -3.946512 2.151811 -11.890766 -0.945931 -2.102871 6.121352 6.897330 3.539310 -4.416894 -10.660679 -1.129822 -0.435898 0.682134 -0.157820 4.680594 14.719198 0.000000 0.000000 0.000000 -3.326137 -6.934058 4.076137 18.149018 22.379456 5.877967 -0.408008 -2.471957 12.304380 4.962816 -18.179328 -6.454243 -0.179200 2.726400 -7.518100 1.721038 1.457801 -3.226790 -10.127718 1.360484 16.313637 3.972776 1.083998 -9.886831 -8.849204 -4.526030 -13.972269 5.367669 -5.891554 18.825837 2.750800 -2.859000 6.116700 -5.575977 -1.028086 -0.980986 -81.633192 0.258207 6.137972 20.251170 -29.763392 -5.694127 -0.442670 -1.114190 2.410866 25.322438 22.022648 10.744700 -7.125000 0.000000 0.000000 -3.668000 55.378800 -0.935400 8.716114 0.655813 -1.981117 75.837148 -2.316484 18.696731 -26.681957 33.452808 -9.800226 1.526493 0.558450 -4.057168 -45.755557 14.058813 -13.755300 7.125000 0.000000 0.000000 -13.235200 -11.485200 -10.629600 
